<?xml version="1.0" encoding="UTF-8" standalone="no"?>
<!-- Created with Inkscape (http://www.inkscape.org/) -->

<svg
   xmlns:dc="http://purl.org/dc/elements/1.1/"
   xmlns:cc="http://creativecommons.org/ns#"
   xmlns:rdf="http://www.w3.org/1999/02/22-rdf-syntax-ns#"
   xmlns:svg="http://www.w3.org/2000/svg"
   xmlns="http://www.w3.org/2000/svg"
   xmlns:sodipodi="http://sodipodi.sourceforge.net/DTD/sodipodi-0.dtd"
   xmlns:inkscape="http://www.inkscape.org/namespaces/inkscape"
   version="1.1"
   id="svg815"
   width="170"
   height="170"
   viewBox="0 0 170 170"
   sodipodi:docname="perguntas.svg"
   inkscape:version="0.92.4 (5da689c313, 2019-01-14)">
  <metadata
     id="metadata821">
    <rdf:RDF>
      <cc:Work
         rdf:about="">
        <dc:format>image/svg+xml</dc:format>
        <dc:type
           rdf:resource="http://purl.org/dc/dcmitype/StillImage" />
        <dc:title></dc:title>
      </cc:Work>
    </rdf:RDF>
  </metadata>
  <defs
     id="defs819" />
  <sodipodi:namedview
     pagecolor="#ffffff"
     bordercolor="#666666"
     borderopacity="1"
     objecttolerance="10"
     gridtolerance="10"
     guidetolerance="10"
     inkscape:pageopacity="0"
     inkscape:pageshadow="2"
     inkscape:window-width="1366"
     inkscape:window-height="706"
     id="namedview817"
     showgrid="false"
     showguides="true"
     inkscape:guide-bbox="true"
     inkscape:zoom="2.8284271"
     inkscape:cx="111.8939"
     inkscape:cy="99.495884"
     inkscape:window-x="-8"
     inkscape:window-y="-8"
     inkscape:window-maximized="1"
     inkscape:current-layer="svg815" />
  <path
     style="fill:#000000;stroke-width:0.99992418"
     d="m 31.007276,169.63315 c 0,-1.32861 3.351091,-5.46442 4.427584,-5.46442 0.658751,0 2.491089,1.34984 4.071774,2.99977 2.021958,2.11038 2.419796,2.99977 1.341971,2.99977 -0.842537,0 -2.346634,-0.90063 -3.342303,-2.00041 l -1.810334,-2.00043 -1.40112,2.00043 c -1.288533,1.83958 -3.287572,2.73056 -3.287572,1.46529 z M 58.39341,166.283 c 2.878043,-2.94741 5.025306,-4.12872 8.895575,-4.89401 4.578932,-0.90553 5.619913,-0.75297 10.158074,1.48115 2.780975,1.36949 5.864769,3.57175 6.852871,4.89401 1.737234,2.32467 1.734099,2.40412 -0.09519,2.40412 -1.040359,0 -2.642438,-0.82984 -3.560188,-1.84384 -0.917713,-1.01413 -4.083528,-2.38423 -7.035082,-3.04481 -4.912337,-1.09955 -5.757315,-1.01167 -9.985479,1.04342 -2.540466,1.23427 -4.619024,2.60436 -4.619024,3.0448 0,0.44055 -0.991299,0.80055 -2.202776,0.80055 -1.997441,0 -1.84913,-0.36245 1.591034,-3.88526 z m 55.64329,2.47917 c 1.6392,-1.57426 20.13439,-9.5879 22.16161,-9.60241 2.22649,-0.0122 22.25873,7.33303 23.03395,8.45003 2.83841,4.08991 -5.4225,3.43848 -14.71703,-1.16057 l -7.51599,-3.71905 -7.51596,3.71905 c -5.45191,2.69774 -8.80601,3.71905 -12.21336,3.71905 -4.06374,0 -4.49989,-0.18916 -3.23322,-1.4061 z M 9.2814244,162.068 6.0541769,160.00106 8.0518485,156.08529 c 1.0986926,-2.15357 2.1877805,-3.91566 2.4201485,-3.91566 0.582235,0 7.536263,4.13045 7.536263,4.4763 0,0.15376 -0.680964,1.90889 -1.513299,3.90088 -1.740151,4.16473 -2.752625,4.3783 -7.2135366,1.52119 z m 5.5097026,-2.32127 c 0.958473,-2.10353 0.781276,-2.63328 -1.347804,-4.02829 -2.350771,-1.54021 -2.498972,-1.50164 -3.6110276,0.93969 -0.9862968,2.16456 -0.8729249,2.76204 0.7583326,3.99644 2.594162,1.96283 2.925368,1.89132 4.200476,-0.90673 z m 70.462042,-1.16177 c -1.787368,-0.78226 -3.249753,-1.66287 -3.249753,-1.9582 0,-0.29531 0.897577,-2.29623 1.994573,-4.44662 1.937715,-3.79826 2.087357,-3.87881 5.249594,-2.82856 5.586382,1.85543 6.175397,2.9911 3.714523,7.16194 -2.365266,4.00889 -2.931037,4.16082 -7.708937,2.07144 z m 5.933424,-2.91959 c 1.317796,-2.89227 1.193758,-3.11169 -2.247381,-3.97533 -2.072128,-0.51988 -2.771212,-0.17695 -3.671998,1.79953 -0.962012,2.11148 -0.818375,2.58413 1.061594,3.49318 3.19454,1.5446 3.604424,1.43354 4.857821,-1.31738 z m 64.098507,1.34691 -2.15707,-2.15712 2.46567,-1.9394 c 2.10756,-1.65786 2.71532,-1.7439 4.18468,-0.59309 3.03921,2.38093 3.21205,3.31109 0.94285,5.07415 -2.82372,2.19384 -2.85991,2.19128 -5.43617,-0.38441 z m 4.2663,-0.92992 c 0.97079,-1.57085 -0.92858,-3.08971 -2.91196,-2.3287 -1.31466,0.50402 -1.43628,0.958 -0.54476,2.03265 1.38072,1.66371 2.54956,1.76378 3.45668,0.29655 z m -99.751435,-1.40609 c -10.162104,-6.90542 -5.107327,-22.27308 7.890812,-23.9899 l 5.185881,-0.68461 2.037492,3.99375 c 1.120659,2.19666 3.857223,6.09646 6.081332,8.66617 l 4.043841,4.67228 -2.202044,3.91797 c -1.211089,2.15492 -2.475469,3.91809 -2.809654,3.91809 -1.000696,0 -8.700754,-8.32543 -9.941704,-10.7492 -0.651795,-1.27307 -2.080584,-2.24986 -3.290853,-2.24986 h -2.138966 l 2.174149,2.31431 c 2.726252,2.9019 2.734636,2.79059 -0.615428,8.173 l -2.789566,4.48178 z m 5.044865,-4.05479 c 0.928209,-2.03727 0.853766,-3.14255 -0.371599,-5.51213 -1.487196,-2.87591 -1.455624,-2.99306 1.0644,-3.95116 3.849267,-1.46357 4.145692,-1.33094 6.536798,2.92338 1.208889,2.151 3.521964,4.88973 5.140102,6.08606 2.824311,2.08817 2.995405,2.1022 4.274905,0.35268 1.173745,-1.60513 0.89599,-2.30197 -2.326327,-5.83612 -2.012549,-2.20728 -4.527655,-5.66103 -5.589113,-7.67511 -1.640971,-3.1135 -2.517571,-3.71796 -5.854444,-4.0361 -3.537145,-0.33682 -4.259588,0.0122 -7.319364,3.59189 -3.89314,4.54816 -4.441827,9.02457 -1.679379,13.70099 2.116549,3.58312 4.588196,3.72676 6.124046,0.35635 z m -50.135809,2.18531 -2.799277,-2.29086 4.403577,-4.05905 c 2.421968,-2.23252 5.369021,-4.36561 6.549001,-4.74002 1.254253,-0.39783 2.145409,-1.51385 2.145409,-2.686 0,-1.9925 -0.01586,-1.99214 -2.620228,0.0611 l -2.620227,2.06107 -3.879288,-3.07251 c -2.133594,-1.68983 -3.863091,-3.3721 -3.84331,-3.73832 0.09519,-1.75562 4.82375,-6.00028 7.798823,-7 4.250972,-1.42856 8.817982,0.32095 13.08405,5.01214 2.52415,2.77573 3.025548,4.16571 3.05004,8.45528 l 0.02928,5.13346 -5.394208,2.18933 c -2.966811,1.20449 -6.419997,3.28131 -7.673737,4.61591 -2.814435,2.99574 -4.629894,3.00976 -8.229939,0.0611 z m 6.615706,-2.02262 c 1.75067,-1.31214 5.0399,-3.31781 7.309396,-4.45713 6.463112,-3.24446 7.24546,-7.98179 2.123175,-12.85616 -4.275101,-4.06832 -8.749572,-5.00287 -12.720751,-2.65709 -3.656266,2.15979 -3.861213,4.0206 -0.606153,5.5037 1.709727,0.7786 3.299077,0.79812 5.405165,0.0611 2.657389,-0.92625 3.046745,-0.803 3.564019,1.12518 1.006312,3.75164 0.702441,4.31837 -3.278001,6.11328 -4.766541,2.14942 -8.510294,6.75359 -6.845354,8.41842 1.479848,1.47993 1.362731,1.50897 5.048541,-1.25344 z M 150.68343,149.6358 c -0.92674,-1.94342 -1.68509,-4.41833 -1.68509,-5.49956 0,-1.08123 -0.48033,-1.96588 -1.06733,-1.96588 -0.59456,0 -0.79945,0.84326 -0.46262,1.9051 0.43822,1.38085 -0.24701,2.51176 -2.49001,4.10885 -1.70208,1.21181 -3.2328,2.04202 -3.40161,1.84457 -3.18645,-3.72747 -3.25993,-9.26706 -0.16403,-12.363 3.1168,-3.1168 6.89047,-4.02549 10.50309,-2.5291 2.40137,0.9946 2.99481,1.96687 3.57902,5.86288 0.38513,2.56873 1.1658,5.5402 1.73464,6.60326 0.82899,1.54925 0.58895,2.29343 -1.20937,3.74968 -3.04245,2.46369 -3.39771,2.34945 -5.33673,-1.7168 z m 4.4379,0.24895 c -0.0146,-0.40393 -0.54697,-3.37991 -1.18314,-6.61326 -1.43046,-7.27091 -3.91905,-9.00823 -8.72069,-6.08814 -1.67367,1.01778 -3.46192,2.599 -3.97388,3.51391 -1.16326,2.07851 -0.39907,6.47744 1.12175,6.45694 2.3568,-0.0366 3.9095,-1.81981 3.37045,-3.88112 -0.67877,-2.59547 0.10131,-3.11816 3.0125,-2.01799 1.52131,0.57479 2.24983,1.67459 2.24983,3.3959 0,2.84296 2.03419,6.67343 3.31692,6.24582 0.45799,-0.15256 0.82082,-0.60775 0.80617,-1.01169 z m -36.12072,-1.71485 c -3.02476,-1.59794 -7.11722,-2.92666 -9.09432,-2.95266 -4.74518,-0.0611 -6.90447,-2.54763 -6.90447,-7.94725 v -4.24282 l 5.74956,0.70047 c 3.16227,0.38565 7.45218,1.55963 9.53312,2.60926 3.3333,1.68141 3.95895,1.73315 5.25728,0.43445 1.61387,-1.61381 1.2519,-2.01628 -2.64972,-2.94631 -2.33622,-0.55649 -2.66951,-1.21548 -3.19629,-6.3199 -0.3234,-3.13389 -0.3606,-6.06605 -0.0831,-6.51588 0.278,-0.45031 2.39131,-0.80299 4.69619,-0.78469 9.42308,0.0733 15.4425,8.34398 13.58772,18.66641 -0.6939,3.86184 -1.69536,5.53019 -5.12965,8.54571 -2.34707,2.06083 -4.71739,3.72698 -5.26733,3.70246 -0.54991,-0.0243 -3.47476,-1.35191 -6.49954,-2.94985 z m 14.51244,-10.11583 c 0.57382,-4.94345 0.34599,-6.14513 -1.81271,-9.56483 -2.70418,-4.28359 -8.57153,-7.04589 -10.61847,-4.99886 -2.6596,2.65955 -0.46765,7.7886 3.92421,9.18251 2.48097,0.78714 2.49463,2.28842 0.0501,5.47016 l -1.89968,2.4722 -3.82768,-1.83469 c -2.1052,-1.00924 -6.18997,-2.15871 -9.07726,-2.55484 -5.23946,-0.71878 -5.2496,-0.71513 -5.2496,2.04144 0,2.52577 0.44812,2.8549 5.2496,3.8556 2.88729,0.60165 7.49944,2.14308 10.24922,3.42507 l 4.99964,2.33077 3.67836,-2.08537 c 3.38065,-1.91656 3.73147,-2.54298 4.33455,-7.73916 z m -41.853981,7.36599 c -0.253836,-0.41247 -0.776395,-2.85333 -1.161176,-5.42426 l -0.699633,-4.67448 3.851976,-1.06903 c 6.025592,-1.67312 7.036734,-1.40563 7.726684,2.04398 1.33692,6.68464 0.95834,7.55304 -3.817553,8.75561 -5.268272,1.32654 -5.309156,1.3291 -5.900334,0.36855 z m 8.027028,-3.60043 c 0.181468,-0.18183 0.05859,-1.68592 -0.272879,-3.34343 -0.554888,-2.77438 -0.853029,-2.96231 -3.756648,-2.36847 -1.734668,0.3551 -3.041444,0.96407 -2.903963,1.35398 0.137534,0.3893 0.249935,1.89011 0.249935,3.33378 0,2.41559 0.2531,2.57412 3.176841,1.98944 1.747267,-0.34902 3.325268,-0.78347 3.506682,-0.9653 z m 52.312023,-8.84862 c -4.67464,-1.70166 -8.58418,-3.15012 -8.68785,-3.21869 -0.10366,-0.0733 -0.51193,-4.83948 -0.90735,-10.60203 -0.57123,-8.32591 -1.30246,-11.7799 -3.56122,-16.82012 -4.22289,-9.423154 -3.99402,-10.341355 3.89743,-15.635288 l 6.73985,-4.521442 3.85025,8.250138 c 2.46676,5.285633 4.17424,10.732482 4.75186,15.158722 0.49583,3.79986 1.06878,7.07605 1.27318,7.28032 1.01252,1.01291 6.64274,2.07267 6.64274,1.25076 0,-0.50524 -0.86074,-3.18454 -1.91262,-5.95294 l -1.91261,-5.03361 3.66249,-2.49895 c 3.65524,-2.494054 3.66314,-2.494786 3.99711,-0.36123 0.18404,1.17521 -0.0988,2.57106 -0.62847,3.1007 -0.53295,0.53331 -0.73113,3.85391 -0.44362,7.43555 l 0.51951,6.47232 -6.39055,-0.30144 -6.39054,-0.30142 -1.27393,-8.98015 c -0.89867,-6.33492 -1.98458,-10.016752 -3.68651,-12.499091 -1.32697,-1.935372 -2.70927,-4.734029 -3.07181,-6.219332 l -0.6591,-2.700417 -3.90369,2.583385 c -2.14703,1.420868 -3.90367,2.717868 -3.90367,2.882252 0,0.164748 1.28626,3.816683 2.8584,8.116384 1.57213,4.299699 3.39509,12.077929 4.05103,17.284979 0.65594,5.20703 1.28202,9.54077 1.39125,9.63071 0.10984,0.0854 2.89845,1.50498 6.19821,3.14439 l 5.99955,2.98087 3.99968,-1.78833 c 5.14564,-2.30062 5.49959,-2.30525 5.49959,-0.0733 0,1.27394 -1.35564,2.38166 -4.28309,3.49964 -2.35572,0.89942 -4.49306,1.61198 -4.74964,1.58293 -0.25665,-0.0244 -4.29126,-1.44526 -8.96589,-3.14694 z M 0.01232155,130.42121 c 0.0015026,-0.98485 1.60965915,-2.62391 3.67932015,-3.74969 2.5622843,-1.39378 4.693768,-3.86416 7.0326283,-8.15105 l 3.356022,-6.15124 -1.660389,-6.6101 C 10.446029,97.901103 7.9174622,96.386754 2.9289765,100.07481 l -2.91935174,2.15846 v -2.337241 c 0,-1.632479 1.35228444,-3.290463 4.48392914,-5.497854 L 8.9774691,91.237559 12.9929,97.15058 c 3.841102,5.65627 4.01543,6.25253 4.01543,13.73445 v 7.82142 l -4.600229,5.25878 C 6.194372,131.06848 0.00635382,134.29132 0.01232155,130.42121 Z M 46.078712,129.53643 c -2.61238,-3.3211 -2.5987,-3.52184 0.434084,-6.37102 l 2.506549,-2.35469 2.997125,2.8714 2.997136,2.87138 -2.690984,2.8088 c -3.307329,3.45215 -3.657792,3.46191 -6.243948,0.17451 z m 4.548692,-5.17166 c -1.49537,-1.49542 -1.752403,-1.49067 -3.304521,0.0611 -1.577428,1.57744 -1.567665,1.81053 0.155475,3.71454 l 1.838488,2.03154 1.466032,-2.09304 c 1.299346,-1.85508 1.281674,-2.27732 -0.155474,-3.71455 z m 38.470209,-3.5272 c -1.701978,-2.97475 -3.094495,-5.68494 -3.094495,-6.02248 0,-0.33804 2.687615,-1.97053 5.972476,-3.62875 l 5.972487,-3.01492 3.526799,5.23707 c 1.93973,2.88031 3.52679,5.78441 3.52679,6.4534 0,0.66876 -1.98467,2.09439 -4.41037,3.16734 -8.356709,3.69659 -8.096332,3.74625 -11.493687,-2.19166 z m 8.370709,0.64923 c 1.943513,-0.92626 3.533658,-2.06753 3.533658,-2.53494 0,-0.67852 -2.085099,-4.45944 -3.686881,-6.68561 -0.160842,-0.22335 -2.076334,0.39781 -4.256636,1.38119 l -3.964206,1.78759 2.204146,3.86074 c 1.212307,2.12343 2.301374,3.86416 2.420192,3.86842 0.118379,0.004 1.806204,-0.75052 3.749727,-1.67739 z m -44.810955,1.0849 c -1.01644,-1.39512 -1.691422,-2.67904 -1.499886,-2.85295 1.578452,-1.43344 8.751449,-4.54659 10.475675,-4.54659 1.18668,0 2.410812,-0.66022 2.720224,-1.46602 0.438109,-1.14104 -0.05005,-1.34338 -2.207148,-0.91161 -2.301199,0.46007 -3.213945,-0.0245 -5.396026,-2.88934 l -2.62633,-3.44325 2.900118,-2.14416 c 4.530607,-3.34966 9.148018,-2.85639 12.8623,1.37387 3.881998,4.42139 4.695587,7.60884 3.208796,12.57133 -1.071235,3.57566 -1.469072,3.90918 -4.662905,3.90918 -1.920448,0 -5.107095,0.67486 -7.081445,1.49983 -4.924993,2.05778 -6.542033,1.85323 -8.693373,-1.09955 z m 7.759795,-0.864 c 2.79812,-0.80545 6.287111,-1.70413 7.753291,-1.99774 6.067933,-1.21549 4.586048,-11.74026 -2.039409,-14.48461 -5.162107,-2.13819 -10.474575,0.79934 -7.463199,4.12715 1.091736,1.20571 2.429876,1.55157 4.449076,1.14714 2.677963,-0.53573 2.887706,-0.35635 2.887706,2.46769 0,2.63721 -0.435547,3.13157 -3.249751,3.68867 -4.923417,0.97506 -9.625974,3.67305 -9.044006,5.18959 0.628974,1.63895 0.521338,1.64127 6.706292,-0.13789 z m -24.302073,-2.92058 -2.240256,-2.38458 2.923109,-2.08146 2.923122,-2.08145 2.289473,2.43706 2.289462,2.43695 -2.396682,1.99577 c -3.042619,2.53372 -3.108593,2.53007 -5.788228,-0.32217 z m 4.781319,-0.9824 c 1.717183,-2.069 -0.827161,-3.88259 -3.107677,-2.21495 -1.303334,0.9531 -1.434,1.53021 -0.547089,2.41705 1.51109,1.51117 2.267702,1.46932 3.654802,-0.20258 z m 73.104582,-1.32042 c -2.42212,-0.89331 -4.95368,-4.61455 -4.97366,-7.31156 -0.028,-3.70331 3.368,-8.59258 6.79734,-9.788042 2.56661,-0.894526 3.28272,-0.746863 4.84378,0.999482 3.2677,3.65485 9.18215,6.78923 12.8112,6.78923 2.80295,0 3.51959,0.39052 3.51959,1.91805 0,3.63948 -1.16532,5.08134 -4.10666,5.08134 -2.56912,0 -2.90804,-0.36367 -3.02896,-3.24969 -0.0988,-2.35005 -0.25615,-2.62695 -0.56954,-0.99948 -0.57198,2.96963 -3.09761,2.87236 -7.77138,-0.29898 -3.66261,-2.48553 -6.52443,-2.65528 -3.20838,-0.19038 1.2811,0.95187 1.47926,1.93475 0.855,4.2393 -0.81387,3.00488 -2.36142,3.84681 -5.1684,2.81195 z m 3.41686,-2.95657 c 0.35659,-0.92991 -0.11106,-2.46477 -1.07611,-3.53088 -1.59164,-1.75866 -1.59467,-1.99884 -0.0451,-3.54869 1.54997,-1.55 1.81603,-1.52693 3.93287,0.34047 1.24874,1.102 3.50784,2.52885 5.02022,3.17198 2.43246,1.03485 2.7498,0.95553 2.7498,-0.68829 0,-1.11054 -1.17692,-2.34456 -2.9275,-3.06971 -1.6101,-0.66753 -3.70468,-2.07144 -4.65461,-3.12107 -2.00685,-2.21753 -5.67988,-2.50138 -7.28839,-0.56259 -0.61408,0.73954 -1.39926,2.75937 -1.74496,4.48788 -1.05793,5.28955 4.28852,11.06833 6.03338,6.52127 z m 17.58155,-3.42836 c 0,-1.43101 -0.53843,-1.96955 -1.73838,-1.73841 -2.60653,0.50156 -2.89724,3.81156 -0.33474,3.81156 1.43097,0 2.07315,-0.64192 2.07315,-2.07315 z M 31.551631,109.67466 c -1.704762,-5.41987 -4.201829,-8.97002 -3.032625,-4.31152 0.459223,1.8298 -0.07078,2.84722 -2.36904,4.54633 l -2.96071,2.18896 -1.59057,-2.42753 c -2.220681,-3.3892 -2.00116,-7.81595 0.499861,-10.079351 3.48965,-3.158055 7.037548,-4.185233 10.643937,-3.081416 2.684613,0.821304 3.327709,1.600384 3.779499,4.576607 0.299475,1.97259 1.035232,5.11844 1.635212,6.99083 0.983978,3.07118 0.858769,3.583 -1.279684,5.22744 -1.303762,1.00192 -2.646356,1.83286 -2.983543,1.84519 -0.337185,0.0122 -1.391224,-2.45184 -2.342313,-5.47554 z m 4.853259,2.66297 c 0.283856,-0.45886 0.103729,-2.37165 -0.399059,-4.24967 -0.503277,-1.87814 -1.164227,-4.6392 -1.468731,-6.13575 -1.046218,-5.141256 -6.460023,-5.916186 -10.563174,-1.51203 -2.098864,2.25292 -2.650346,7.19172 -0.922349,8.25978 1.615344,0.99826 3.9559,-1.49774 3.9559,-4.21879 0,-3.51341 4.372181,-2.88261 4.796146,0.69195 0.663877,5.5978 3.163752,9.49028 4.601169,7.16451 z m 48.124236,-3.48108 c -1.662962,-7.58285 -2.132045,-13.157345 -1.461359,-17.366376 0.617016,-3.872209 0.452511,-5.060475 -0.839609,-6.065565 -2.635701,-2.050088 -3.224551,-1.476028 -3.224551,3.143407 v 4.393426 l -6.510022,2.606084 c -3.580519,1.433438 -6.932267,2.606082 -7.448333,2.606082 -0.516092,0 -1.709191,-2.445482 -2.651371,-5.434393 -1.531385,-4.858139 -1.563309,-5.991124 -0.301064,-10.684027 1.913819,-7.115444 7.557008,-11.305191 17.329973,-12.8664 l 6.822545,-1.089785 6.378393,4.1557 c 3.508115,2.285616 6.377769,4.215254 6.377007,4.288231 -7.29e-4,0.07321 -0.65923,3.870378 -1.463185,8.438927 -1.035109,5.881657 -1.196563,9.705296 -0.552946,13.098879 1.39709,7.36671 0.662901,8.69081 -6.081075,10.96837 l -5.895569,1.9909 z M 93.50255,91.443557 V 76.897449 l -3.687961,-2.985739 -3.68796,-2.985736 -6.645604,1.253921 c -5.728903,1.081241 -7.182246,1.822367 -10.53596,5.374475 -3.563542,3.774458 -3.892455,4.594543 -3.915361,9.763141 -0.02928,6.579584 1.219508,7.616647 6.508997,5.406571 2.850815,-1.191074 3.527175,-2.084988 4.049553,-5.351776 0.948221,-5.929983 1.351294,-6.254843 6.226031,-5.01752 l 4.254328,1.080021 -0.205996,8.119436 c -0.113493,4.465671 0.148396,9.973887 0.581624,12.240347 0.778346,4.07272 0.824477,4.10971 3.922989,3.15806 l 3.135363,-0.96287 z M 44.256272,95.589371 C 42.468905,94.80712 41.006521,93.926626 41.006521,93.6313 c 0,-0.914052 4.013247,-8.456622 4.499743,-8.456622 1.67109,0 8.499274,3.40652 8.499274,4.240149 0,1.818948 -4.126496,7.761503 -5.331164,7.677296 -0.642644,-0.04881 -2.630734,-0.721232 -4.418102,-1.502752 z m 6.749494,-4.999213 c 0,-1.229395 -2.171122,-2.415708 -4.420945,-2.415708 -0.691703,0 -1.756591,1.094666 -2.366453,2.433646 -0.99606,2.186036 -0.834362,2.530422 1.589363,3.384674 2.776616,0.978731 5.198035,-0.60652 5.198035,-3.402612 z M 19.30194,91.784892 c -1.763288,-1.160565 -3.938755,-3.731014 -4.834379,-5.711419 -1.377495,-3.046022 -1.439662,-4.23075 -0.403573,-7.689133 1.889193,-6.305612 6.345968,-10.003065 12.999749,-10.785197 l 5.536966,-0.650452 1.953043,4.338509 c 1.074162,2.386174 3.640426,6.289503 5.702765,8.673969 2.062338,2.384466 3.749721,4.576115 3.749721,4.870219 0,0.428349 -3.145178,5.305528 -4.690791,7.274581 -0.556119,0.709032 -7.284524,-6.180036 -9.455672,-9.680888 -1.233615,-1.989071 -2.8272,-3.249704 -4.108031,-3.249704 h -2.092531 l 2.174147,2.314296 c 2.760998,2.938875 2.733296,3.335248 -0.579914,8.295655 l -2.745523,4.11018 z m 4.632996,-3.974232 c 1.054026,-1.96942 0.993373,-2.888841 -0.36318,-5.512133 -1.604592,-3.102892 -1.590584,-3.162688 0.968967,-4.135928 3.814974,-1.4504 4.093448,-1.333489 6.580155,2.762412 1.252092,2.06229 2.841468,4.097123 3.531925,4.521686 0.690481,0.424686 1.97529,1.491893 2.855183,2.371774 1.466448,1.466508 1.712816,1.445275 2.955608,-0.253836 1.198761,-1.639434 0.980316,-2.269873 -1.885386,-5.44184 -1.782644,-1.973202 -4.274441,-5.425973 -5.537308,-7.673026 -1.894723,-3.371128 -2.928686,-4.16595 -5.914584,-4.546703 -8.135556,-1.037308 -14.292112,10.967028 -9.04547,17.63704 2.563688,3.25922 4.213984,3.335615 5.85409,0.270921 z m 81.225854,4.090655 c -3.01775,-0.965308 -3.2835,-1.353993 -2.74978,-4.02256 0.32499,-1.624788 0.59078,-3.833522 0.59078,-4.908416 0,-1.968446 1.69128,-1.99993 8.24937,-0.153766 3.09987,0.872558 1.65531,10.523304 -1.53505,10.255191 -0.66815,-0.06101 -2.71801,-0.583333 -4.55536,-1.170328 z m 5.77014,-5.86323 c 0.0464,-1.076361 -0.9564,-1.7871 -2.92949,-2.076692 -2.36401,-0.346582 -3.03156,-0.04883 -3.14976,1.386454 -0.083,1.004359 -0.19501,2.368845 -0.24992,3.031501 -0.0549,0.662657 1.02485,1.478225 2.39981,1.812362 2.56331,0.622383 3.77949,-0.662657 3.92942,-4.153625 z m 17.23687,-1.528993 c -3.39207,-3.021494 -6.16741,-6.285475 -6.16741,-7.253223 0,-1.539852 10.9052,-11.07979 12.66545,-11.07979 0.36501,0 3.42705,2.653555 6.80453,5.89679 l 6.14084,5.89679 -6.63798,6.01663 -6.63803,6.01663 z m 10.65189,-2.912639 4.18026,-3.578101 -3.85548,-4.051969 c -4.1983,-4.41234 -4.37211,-4.403432 -10.14315,0.517434 l -3.29324,2.808055 3.84867,3.941402 c 2.11676,2.16773 4.12633,3.941404 4.46568,3.941404 0.33938,0 2.4981,-1.610146 4.79726,-3.578225 z m -30.60232,-0.926253 -3.28379,-1.426849 2.49356,-4.920744 c 1.37147,-2.70652 3.69942,-5.799282 5.17324,-6.872835 2.10296,-1.531921 2.47022,-2.326255 1.70653,-3.690864 -0.88365,-1.579025 -1.12322,-1.509833 -2.60506,0.751743 -1.59171,2.429254 -1.74461,2.456712 -6.20119,1.115412 -6.421542,-1.932567 -6.50074,-2.034344 -4.85248,-6.230438 2.14119,-5.450869 7.21933,-8.655052 12.40328,-7.82606 6.79779,1.087342 11.43847,4.713405 12.95273,10.121805 l 1.31119,4.683018 -5.1573,5.023986 c -2.83654,2.763145 -5.15731,5.418287 -5.15731,5.900453 0,1.091004 -3.73059,4.890357 -4.74966,4.837149 -0.41247,-0.02441 -2.22764,-0.680962 -4.03374,-1.465898 z m 11.64872,-10.678658 c 3.9375,-4.302143 4.30044,-5.115026 3.70384,-8.295046 -0.52511,-2.799023 -1.46808,-3.937132 -4.57537,-5.522382 -2.15268,-1.098327 -5.69915,-1.996758 -7.88102,-1.996758 -3.26566,0 -4.40508,0.560147 -6.44439,3.165498 -2.89558,3.699772 -2.57337,5.42329 1.14969,6.150016 1.86284,0.363667 3.36694,-0.109833 4.92196,-1.560723 2.17031,-2.019942 2.30135,-2.027997 4.24968,-0.264817 2.71925,2.46086 2.54248,3.627893 -1.07134,7.071876 -2.43396,2.319544 -5.91765,8.197783 -5.91765,9.985126 0,0.167188 0.78738,0.497907 1.74987,0.733436 1.04901,0.257499 2.55085,-0.596756 3.74971,-2.133923 1.09992,-1.409763 3.9642,-4.709623 6.36508,-7.332914 z M 44.284108,79.51952 c -2.090212,-1.458943 -2.132864,-1.723274 -0.71916,-4.457007 1.4572,-2.817938 1.590413,-2.860773 4.391048,-1.412447 2.693412,1.392799 2.811458,1.696913 1.749889,4.509361 -1.274412,3.376374 -2.200313,3.60861 -5.421728,1.360093 z m 4.148731,-2.013964 c 0.570276,-1.486035 -0.814958,-3.272645 -2.569705,-3.314381 -1.342433,-0.03662 -1.867665,3.360633 -0.640812,4.139101 1.882263,1.194735 2.496252,1.036088 3.210517,-0.824964 z M 0.00962476,76.869747 c 0,-1.521181 0.99740314,-3.334273 2.47260084,-4.494716 1.359923,-1.069037 4.119015,-3.39041 6.1312941,-5.157251 L 12.272215,64.005423 6.9706319,58.637049 C 4.0547605,55.684504 1.2956803,53.499567 0.83933778,53.781595 0.38304459,54.063497 0.00961294,53.168971 0.00961294,51.794599 c 0,-1.374859 0.41797452,-2.75814 0.9288176,-3.073847 0.51084316,-0.316074 4.33553196,2.408994 8.49934636,6.054948 5.3871661,4.717189 7.5705771,7.304723 7.5705771,8.971858 0,2.152232 -2.951408,4.909761 -15.7487978,14.714274 -0.92344757,0.707811 -1.24990677,0.291666 -1.24990677,-1.592085 z M 162.00849,70.700084 l -7.4883,-7.552332 7.4883,-6.864904 c 7.09299,-6.502457 7.50564,-6.732616 7.81692,-4.359013 0.25507,1.944526 -0.75296,3.466685 -4.49967,6.794734 l -4.82827,4.288841 4.82909,4.948813 c 3.7553,3.848411 4.75583,5.54325 4.49965,7.622504 -0.31533,2.559708 -0.64886,2.351515 -7.81772,-4.878643 z M 48.245049,72.629843 46.03927,71.084865 49.272461,68.298898 c 1.77825,-1.532285 4.020629,-3.072747 4.983057,-3.423235 0.962377,-0.350245 1.749864,-1.100768 1.749864,-1.668602 0,-1.357043 -1.318479,-1.312622 -2.72275,0.09762 -0.830578,0.829848 -1.920057,0.555265 -4.184977,-1.058054 -2.924389,-2.082425 -2.992009,-2.287445 -1.5034,-4.559393 3.151756,-4.81018 10.519669,-3.994612 14.676491,1.624423 2.979916,4.028173 1.663621,8.146283 -3.322509,10.39468 -2.174857,0.98117 -4.45675,2.388614 -5.070885,3.128641 -1.453293,1.751098 -2.921634,1.698989 -5.632303,-0.200137 z m 13.759877,-8.951357 c 0,-5.11881 -7.460697,-9.136852 -11.461385,-6.172713 -1.638519,1.214261 -1.749425,1.710092 -0.672542,3.007704 0.943341,1.136157 1.912528,1.317137 3.60916,0.672419 4.436639,-1.686785 5.06504,3.14231 0.70244,5.398272 -3.461311,1.789905 -5.547814,4.181937 -4.759912,5.456729 0.324007,0.524755 3.287485,-0.648013 6.585588,-2.606084 4.428963,-2.628782 5.996566,-4.133488 5.996566,-5.75596 z m 10.266579,0.793236 C 68.670069,63.776116 64.242473,57.539453 63.49572,52.109941 62.926788,47.973401 63.191728,46.795264 65.432692,43.49748 l 2.59604,-3.820466 10.616625,-0.06101 10.616627,-0.06101 1.370333,3.279724 c 0.753695,1.803816 1.370344,3.672435 1.370344,4.152526 0,1.352526 -10.448082,3.367468 -13.495387,2.602666 -1.839268,-0.461298 -3.0017,-0.23431 -3.595345,0.702928 -1.413363,2.231677 -1.082095,2.564349 2.090053,2.098779 2.722274,-0.399058 3.180032,-0.03662 4.97766,3.922855 1.088809,2.399598 1.989584,4.854112 2.001665,5.45453 0.02074,1.025105 -6.66258,3.569316 -8.593413,3.271914 -0.486192,-0.07321 -1.888534,-0.330718 -3.116389,-0.567469 z m 8.340406,-3.7182 c 0.975557,-2.542379 -1.49304,-5.465513 -5.203587,-6.161609 -3.029136,-0.568688 -3.484562,-0.992155 -3.001275,-2.792798 0.31339,-1.167887 0.57589,-2.736418 0.583455,-3.486331 0.01052,-1.04829 1.053905,-1.206938 4.520063,-0.687064 3.676866,0.551604 8.954482,-0.318514 12.265862,-2.021651 0.15047,-0.07321 0.01062,-0.826186 -0.310827,-1.663476 -0.474722,-1.236959 -2.476652,-1.498483 -10.665428,-1.393044 -9.694911,0.124478 -10.157491,0.23187 -12.076242,2.802928 -1.78722,2.394594 -1.873047,3.158175 -0.8235,7.326566 1.506305,5.982093 5.282532,9.424613 10.384831,9.467327 2.369577,0.02441 3.984763,-0.499129 4.326673,-1.390238 z m -50.006134,-0.07321 c -2.087746,-3.186243 -2.081987,-3.20821 1.302956,-4.958575 2.75831,-1.42636 2.9801,-1.380107 4.499658,0.938458 2.087746,3.186243 2.081988,3.20821 -1.302957,4.958576 -2.758298,1.426359 -2.980087,1.380108 -4.499657,-0.939678 z m 4.401199,-0.489365 c 1.333234,-0.843269 1.333234,-1.115411 0,-2.448291 -1.848336,-1.848359 -4.323218,-0.578451 -3.42663,1.757445 0.731607,1.90645 1.317478,2.024581 3.42663,0.690724 z M 146.53571,45.921119 c -4.55656,-9.628658 -5.42455,-12.423776 -6.02572,-19.40388 l -0.70232,-8.154706 -4.52559,-1.139818 c -2.48909,-0.627265 -4.67484,-0.990933 -4.85726,-0.80788 -0.18243,0.181835 0.77737,3.386995 2.13291,7.121424 1.35551,3.734431 2.23401,7.162916 1.95219,7.618842 -0.76286,1.234399 -20.54251,15.326408 -20.9004,14.890495 -0.16928,-0.206241 -2.62516,-3.841578 -5.45767,-8.07892 l -5.14998,-7.70427 0.0146,-9.294399 0.0146,-9.294522 5.06831,-5.7494922 c 4.64672,-5.27135469 5.41493,-5.74924858 9.23517,-5.74583159 l 4.16681,0.00366 -3.07557,1.87557469 C 116.41792,3.2817852 113.91553,6.6905 111.21748,11.87655 l -4.13276,7.943704 2.2087,8.390966 c 2.07066,7.866577 2.40813,8.448079 5.3999,9.303554 2.88789,0.826186 3.63822,0.530857 7.89458,-3.107897 l 4.70337,-4.02036 -0.20697,-8.606483 -0.20698,-8.606604 h 4.93646 c 2.71506,0 6.2753,0.267259 7.91164,0.595537 2.96893,0.594315 2.97858,0.618723 4.60167,12.02911 1.41795,9.968039 2.01859,11.921962 4.68444,15.239272 1.68188,2.092922 3.51629,5.465271 4.07651,7.494122 l 1.01852,3.68891 2.762,-1.631502 c 1.5191,-0.896966 3.81384,-2.424981 5.0994,-3.394682 l 2.33741,-1.763177 -3.68499,-9.510283 c -2.2545,-5.818566 -4.24509,-13.341121 -5.12781,-19.378374 -0.79361,-5.427441 -1.69966,-11.3303314 -2.01355,-13.1177954 -0.55087,-3.13706302 -0.45374,-3.24970239 2.80358,-3.24970239 h 3.37427 l 1.09758,12.37874279 c 0.97861,11.037688 1.48464,13.14745 4.67046,19.473563 3.73258,7.411992 4.43233,11.714866 2.32297,14.28495 -1.4013,1.707407 -14.25135,10.858416 -15.24755,10.858416 -0.35219,0 -3.03581,-5.062063 -5.96367,-11.249177 z M 27.446662,51.61911 c -0.3644,-2.42974 -0.415656,-5.06084 -0.113494,-5.846998 0.301673,-0.785912 -0.02806,-1.650661 -0.732095,-1.92085 -0.865359,-0.331938 -1.145432,0.216005 -0.863651,1.689714 0.335967,1.75781 -0.291177,2.437307 -3.230749,3.500243 -2.006239,0.724895 -3.858248,1.108088 -4.115575,0.850593 -0.257374,-0.257498 -0.729045,-2.077668 -1.048412,-4.045136 -0.496322,-3.05835 -0.138634,-4.019141 2.465655,-6.623394 2.114755,-2.114765 4.016176,-3.046145 6.218552,-3.046145 3.955987,0 9.205948,2.969996 8.500346,4.808715 -0.285808,0.74442 -0.519751,3.973376 -0.519751,7.174387 0,5.545327 -0.139122,5.868356 -2.948969,6.847941 -2.927978,1.020222 -2.953667,0.997035 -3.61143,-3.389679 z m 4.560541,-5.260614 c 0,-7.407597 -1.576352,-9.586554 -6.134307,-8.47932 -4.840617,1.176428 -8.704711,7.124474 -6.233281,9.59583 1.158977,1.159344 4.368188,-1.340813 4.368188,-3.402614 0,-1.537534 0.549286,-1.956241 2.249836,-1.714609 1.822343,0.258717 2.266895,0.984832 2.339665,3.819245 0.04883,1.924878 0.419317,4.518635 0.821914,5.764016 1.306826,4.041961 2.587961,1.27845 2.587961,-5.582548 z m 14.763003,-3.308279 c -5.223249,-4.474824 -5.220648,-3.958611 -0.06102,-12.173968 l 2.387518,-3.801673 5.204294,3.739801 c 2.862359,2.0568 5.415773,3.904061 5.674244,4.104932 0.600176,0.466178 -3.962869,9.108174 -5.756252,10.901495 -1.882982,1.88302 -2.118987,1.795275 -7.448615,-2.770587 z m 8.177109,-3.498779 c 1.176552,-1.994193 2.008486,-3.714782 1.848642,-3.823517 -0.159868,-0.109832 -1.728032,-1.189853 -3.48489,-2.402405 l -3.194286,-2.204584 -2.515094,3.701358 -2.515092,3.701237 3.153843,2.326865 c 1.734622,1.279794 3.471954,2.326863 3.86075,2.326863 0.388807,0 1.669552,-1.631623 2.846127,-3.625817 z m 37.516606,3.875748 C 91.414044,41.364897 90.416325,39.409389 90.24689,39.0816 c -0.169388,-0.328279 1.467229,-1.770746 3.637012,-3.206626 4.300151,-2.845762 4.579855,-2.73544 7.460998,2.940951 l 1.5928,3.13804 -3.946193,2.611453 c -2.170418,1.436367 -4.09749,2.611453 -4.282403,2.611453 -0.184881,0 -1.195221,-1.687272 -2.245183,-3.749685 z m 5.956416,-0.765167 c 1.633553,-1.236104 1.745433,-1.830055 0.754312,-4.005472 -0.972267,-2.133682 -1.484391,-2.382392 -3.112238,-1.511297 -2.796488,1.496651 -3.29991,2.714816 -2.070948,5.011174 1.272809,2.378242 1.864701,2.445849 4.428896,0.50523 z M 56.046166,29.178238 C 53.593788,27.025153 51.793924,25.082092 52.046466,24.86023 56.056137,21.336801 65.578599,15.310042 68.832732,14.236124 71.832796,13.24641 73.222483,12.157603 73.64717,10.465448 74.525831,6.9648393 73.62886,6.7553031 69.352544,9.4623113 L 65.514688,11.89132 59.760107,6.8861266 C 56.595097,4.1332332 54.005538,1.498471 54.005538,1.0309503 c 0,-0.46739869 1.124929,-0.84937199 2.499802,-0.84937199 1.374897,0 2.507588,0.56258693 2.517095,1.24989489 0.0095,0.6870639 1.412691,2.2247202 3.118184,3.416282 2.902143,2.0275101 3.394779,2.0779102 7.685474,0.7871331 2.521512,-0.7590654 4.717543,-1.2468437 4.88007,-1.0849016 0.162551,0.1623082 0.682792,2.3687226 1.156171,4.9026824 l 0.860722,4.6073559 -6.152151,2.171878 c -3.73398,1.318114 -7.826732,3.733944 -10.41252,6.145866 l -4.260358,3.973988 2.2065,1.913771 c 2.791127,2.420711 2.675375,2.43328 7.417946,-0.806658 2.190001,-1.49592 7.54926,-4.142031 11.909442,-5.880194 7.666182,-3.056274 7.970699,-3.304498 9.234127,-7.52939 C 88.46494,8.0336321 88.410293,7.7140196 84.899543,3.715503 82.133934,0.56562632 82.012191,0.18096812 83.78096,0.18096812 c 1.091614,0 3.093531,1.46236008 4.448696,3.24970238 2.354432,3.1053331 2.421845,3.5887198 1.516739,10.8746475 l -0.947244,7.624945 -7.646168,2.22167 c -4.388508,1.275156 -9.620946,3.671337 -12.281213,5.62416 -2.549275,1.871303 -5.47469,3.38321 -6.50093,3.359779 -1.026203,-0.02441 -3.872368,-1.804183 -6.324747,-3.957146 z M 14.99062,29.807944 C 13.075591,28.504354 10.560803,25.692028 9.4022033,23.558471 7.5330727,20.116438 7.4203713,19.126969 8.4022386,14.778697 L 9.5088639,9.8782104 15.560079,8.2248626 c 3.328159,-0.9091684 7.140496,-2.4163163 8.471864,-3.3489175 3.431534,-2.403503 5.190125,-2.1245282 8.520519,1.3516742 2.448303,2.5554376 2.680146,3.2036944 1.436988,4.0179197 -5.703179,3.735285 -7.814088,4.861068 -10.258033,5.471127 -2.360682,0.589435 -4.723267,3.01527 -4.723267,4.850209 0,0.285563 1.330939,-0.244073 2.957633,-1.17765 l 2.957646,-1.697402 4.026609,3.931884 c 3.873406,3.782268 3.960612,4.006083 2.291962,5.881659 -2.086783,2.345657 -7.301878,4.673498 -10.46973,4.673498 -1.264894,0 -3.866657,-1.066597 -5.781687,-2.37031 z m 10.394959,-1.142259 c 4.007866,-1.674581 4.535161,-3.349771 1.826114,-5.801481 -1.294194,-1.171545 -2.830214,-1.457233 -5.499587,-1.023882 -3.273182,0.530858 -3.721286,0.352685 -3.853831,-1.529724 -0.08299,-1.171548 -0.195012,-2.654288 -0.249929,-3.294246 -0.05491,-0.63947 1.956254,-1.877405 4.469443,-2.74972 2.513188,-0.872559 5.856126,-2.614381 7.428747,-3.870988 2.598882,-2.0766906 2.716257,-2.4279103 1.288653,-3.8554906 -1.427604,-1.42758 -1.967627,-1.3393472 -5.928873,0.968967 -2.396998,1.3968273 -6.451543,3.0616436 -9.010093,3.6995286 -4.208566,1.04951 -4.742706,1.517763 -5.604841,4.914277 -0.8531568,3.361243 -0.6488683,4.162898 1.950393,7.65533 1.596844,2.14552 4.344014,4.429183 6.104814,5.074878 1.760799,0.645571 3.259002,1.208157 3.329318,1.249894 0.07078,0.03662 1.757701,-0.605299 3.749721,-1.43722 z M 32.757141,4.6972844 c -3.11495,-2.7416657 -3.540564,-4.51607224 -1.083195,-4.51607224 0.916615,0 1.385698,0.28068338 1.042435,0.62360509 -0.343288,0.34292175 0.36916,1.45369535 1.583212,2.46769435 2.169256,1.8118718 2.245333,1.7974716 4.41289,-0.8347278 2.998101,-3.6410725 4.041499,-2.18701097 1.194125,1.66433 -2.723335,3.6834188 -3.561126,3.7532244 -7.149455,0.5955368 z"
     id="path863"
     inkscape:connector-curvature="0" />
</svg>
